<svg width="900" height="650" xmlns="http://www.w3.org/2000/svg">
  <!-- GEBH Fugue Transformation Layers -->
  <style>
    .path-instruction-1 { 
      stroke: #3a86ff; 
      stroke-width: 3;
      fill: none;
      stroke-dasharray: 0;
    }
    .path-instruction-2 { 
      stroke: #ef476f; 
      stroke-width: 3;
      fill: none;
      stroke-dasharray: 0; 
    }
    .inhibition-link {
      stroke: #8338ec;
      stroke-width: 2;
      stroke-dasharray: 5,3;
      marker-end: url(#inhibition-head);
    }
    .fugue-echo {
      stroke: #06d6a0;
      stroke-width: 1;
      opacity: 0.4;
    }
    .node-anchor {
      fill: white;
      stroke: #333;
      stroke-width: 1.5;
    }
    .symbol-text {
      font: 20px monospace;
      text-anchor: middle;
      dominant-baseline: central;
    }
    .phase-marker {
      fill: #ffd166;
      fill-opacity: 0.7;
    }
  </style>

  <defs>
    <!-- Arrowhead for inhibition links -->
    <marker id="inhibition-head" markerWidth="10" markerHeight="10" refX="9" refY="3" orient="auto">
      <path d="M0,0 L10,3 L0,6 Z" fill="#8338ec"/>
    </marker>
    
    <!-- GEBH fugue transformation filter -->
    <filter id="fugue-transform" x="-20%" y="-20%" width="140%" height="140%">
      <feTurbulence type="fractalNoise" baseFrequency="0.02" numOctaves="3" result="turbulence"/>
      <feDisplacementMap in2="turbulence" in="SourceGraphic" scale="3" xChannelSelector="R" yChannelSelector="G"/>
    </filter>
  </defs>

  <!-- Competing Instruction Paths -->
  <g filter="url(#fugue-transform)">
    <!-- Blue Instruction Path -->
    <path class="path-instruction-1" d="M150,100 C200,50 300,80 350,150 S500,250 450,350 S300,450 150,400" id="instr1"/>
    
    <!-- Red Instruction Path -->
    <path class="path-instruction-2" d="M150,100 C100,150 200,250 150,350 S100,450 300,400 S550,300 450,200" id="instr2"/>
    
    <!-- Mutual Inhibition Links -->
    <path class="inhibition-link" d="M250,180 L200,220"/>
    <path class="inhibition-link" d="M300,320 L350,280"/>
    <path class="inhibition-link" d="M400,200 L380,250"/>
    
    <!-- Fugue Echoes -->
    <path class="fugue-echo" d="M150,100 C200,150 250,120 300,150"/>
    <path class="fugue-echo" d="M450,200 C400,250 420,300 350,350"/>
  </g>

  <!-- Symbolic Anchors -->
  <g>
    <!-- Instruction 1 Anchors -->
    <circle class="node-anchor" cx="350" cy="150" r="25"/>
    <text class="symbol-text" x="350" y="150">⯇</text> <!-- Left-flow anchor -->
    
    <circle class="node-anchor" cx="450" cy="350" r="25"/>
    <text class="symbol-text" x="450" y="150">⧖</text> <!-- Conflict point -->
    
    <!-- Instruction 2 Anchors -->
    <circle class="node-anchor" cx="150" cy="350" r="25"/>
    <text class="symbol-text" x="150" y="350">⯈</text> <!-- Right-flow anchor -->
    
    <circle class="node-anchor" cx="450" cy="200" r="25"/>
    <text class="symbol-text" x="450" y="200">⧖</text> <!-- Conflict point -->
  </g>

  <!-- Phase Disruption Markers -->
  <circle class="phase-marker" cx="300" cy="250" r="40"/>
  <text class="symbol-text" x="300" y="250" font-size="30">⇌</text>

  <!-- Legend -->
  <g transform="translate(600,50)">
    <rect width="250" height="220" fill="white" stroke="#333" rx="5"/>
    <text x="10" y="30" font-weight="bold">Instruction Disruption Legend</text>
    
    <line x1="20" y1="50" x2="50" y2="50" class="path-instruction-1"/>
    <text x="60" y="54" class="legend-item">Primary Instruction</text>
    
    <line x1="20" y1="80" x2="50" y2="80" class="path-instruction-2"/>
    <text x="60" y="84" class="legend-item">Competing Instruction</text>
    
    <line x1="20" y1="110" x2="50" y2="110" class="inhibition-link"/>
    <text x="60" y="114" class="legend-item">Mutual Inhibition</text>
    
    <text x="30" y="140" class="symbol-text">⧖</text>
    <text x="60" y="144" class="legend-item">Contradiction Fork</text>
    
    <text x="30" y="170" class="symbol-text">⇌</text>
    <text x="60" y="174" class="legend-item">Phase Disruption</text>
    
    <text x="30" y="200" class="symbol-text">⯇⯈</text>
    <text x="60" y="204" class="legend-item">Flow Direction</text>
  </g>

  <!-- Metadata -->
  <text x="20" y="620" font-style="italic" font-size="12">
    GEBH_fugue_transform(recursion_depth=3, dissonance_angle=42°)
  </text>
</svg>
